<svg width="353" height="249" viewBox="0 0 353 249" fill="none" xmlns="http://www.w3.org/2000/svg">
<g clip-path="url(#clip0_478_1591)">
<g filter="url(#filter0_d_478_1591)">
<path d="M276.52 85.6173C276.52 85.6173 277.927 92.8259 272.131 95.2832C266.335 97.7459 258.078 96.5119 259.658 107.412C261.318 118.86 278.454 113.212 276.167 109.168C273.886 105.123 262.467 117.431 272.126 121.998C281.785 126.57 291.269 115.317 287.76 114.088C284.251 112.859 278.976 127.097 294.083 129.027C309.191 130.962 310.065 119.535 310.065 119.535C310.065 119.535 313.58 129.201 319.903 129.027C326.226 128.853 339.047 116.197 329.388 109.163C329.388 109.163 330.621 120.527 337.819 117.774C342.783 115.875 338.699 109.69 332.723 106.7C326.753 103.71 337.64 118.655 347.478 112.147C357.316 105.645 353.274 91.5814 341.154 93.3374C329.035 95.0934 348.358 98.7847 350.639 92.636C354.375 82.5693 346.424 76.1148 336.939 82.2635C327.454 88.4174 325.699 78.2188 325.52 69.4335C325.346 60.6429 315.862 46.405 297.767 50.977C279.677 55.5489 274.228 68.3789 276.515 85.6067L276.52 85.6173Z" fill="#352C38"/>
<path d="M297.598 105.566C297.598 105.566 299.442 121.386 293.382 123.495C287.323 125.605 273.095 117.695 272.568 135.36C272.041 153.026 292.592 188.093 299.442 187.039C306.292 185.984 333.957 175.701 333.957 175.701C333.957 175.701 343.441 132.46 337.645 122.704C331.849 112.949 319.202 128.769 316.304 117.695C313.406 106.621 316.041 85.2639 316.041 85.2639L297.598 105.566Z" fill="#965450"/>
<path d="M296.17 120.769C300.781 118.644 305.228 116.092 308.801 112.553C311.583 109.795 313.569 106.626 314.95 103.188C314.971 93.9965 316.046 85.2692 316.046 85.2692L297.603 105.571C297.603 105.571 298.773 115.628 296.175 120.774L296.17 120.769Z" fill="#76413B"/>
<path d="M293.119 56.7882C293.119 56.7882 277.574 57.3155 274.676 76.0357C271.778 94.7559 282.844 111.367 299.969 109.258C317.095 107.148 318.907 79.8905 315.514 69.7078C310.771 55.4698 293.119 56.7882 293.119 56.7882Z" fill="#965450"/>
<path d="M314.813 82.9807C314.813 82.9807 317.975 74.2797 323.244 76.6527C328.513 79.0257 323.244 95.9003 314.549 91.6816C305.855 87.463 314.813 82.9807 314.813 82.9807Z" fill="#965450"/>
<path d="M314.634 72.7874C314.634 72.7874 309.011 82.2793 312.173 87.1993C315.335 92.1193 316.388 78.4087 316.388 78.4087L314.634 72.7821V72.7874Z" fill="#352C38"/>
<path d="M277.047 68.0414C277.047 68.0414 277.748 50.2862 300.933 50.1121C320.019 49.9698 320.604 76.3046 320.604 76.3046C320.604 76.3046 317.795 77.5333 316.035 82.4586C316.035 82.4586 310.608 61.6607 294.431 60.4847C282.311 59.6041 277.042 68.0414 277.042 68.0414H277.047Z" fill="#FFA65B"/>
<path d="M317.153 61.3126C315.761 64.967 313.533 68.2259 310.74 71.0419C314.528 76.6738 316.035 82.448 316.035 82.448C317.79 77.528 320.604 76.2941 320.604 76.2941C320.604 76.2941 320.43 68.4211 317.153 61.3074V61.3126Z" fill="#ED802F"/>
<path d="M290.574 77.5332C290.706 78.1238 290.822 78.725 290.901 79.3261C290.985 79.9273 291.069 80.5337 291.117 81.1401C291.169 81.7466 291.222 82.353 291.243 82.9594C291.264 83.5659 291.269 84.1776 291.28 84.7893C291.275 85.401 291.233 86.0074 291.206 86.6191C291.185 86.9249 291.19 87.2308 291.148 87.5367L291.032 88.4489L290.911 89.3612C290.879 89.6671 290.816 89.9676 290.742 90.2682L290.305 92.0664L289.999 91.5233C291.791 92.135 293.577 92.7625 295.322 93.5324C293.435 93.2424 291.591 92.8205 289.752 92.3775L289.367 92.2826L289.446 91.8344L289.762 90.0889C289.815 89.7989 289.878 89.5089 289.899 89.2136L289.999 88.3277L290.1 87.4417C290.147 87.1464 290.147 86.8459 290.173 86.5506C290.216 85.9547 290.252 85.3588 290.305 84.7629C290.331 84.167 290.347 83.5659 290.384 82.9647C290.432 82.3635 290.416 81.7624 290.453 81.1612C290.484 80.5601 290.484 79.9589 290.511 79.3525L290.574 77.5332Z" fill="#562622"/>
<path d="M317.795 89.8358C318.054 89.5722 318.285 89.2821 318.486 88.9921C318.675 88.7021 318.855 88.3646 318.833 88.0956C318.818 87.9691 318.76 87.89 318.66 87.8162C318.559 87.7423 318.412 87.6896 318.264 87.6527C317.953 87.5789 317.6 87.5736 317.258 87.5683H316.826L316.91 87.1148C317.037 86.4293 317.174 85.7596 317.363 85.0951C317.553 84.4307 317.748 83.7715 318.011 83.1229C318.27 82.4796 318.559 81.8362 318.944 81.2193C319.134 80.9134 319.36 80.6181 319.613 80.3386C319.871 80.0591 320.177 79.7955 320.572 79.6109C320.962 79.4211 321.468 79.3736 321.895 79.5054C322.269 79.6109 322.685 79.8482 322.965 80.1699C323.254 80.4863 323.413 80.8818 323.502 81.2562C323.586 81.6358 323.607 82.005 323.597 82.3688C323.555 83.0913 323.402 83.7768 323.186 84.4307C322.975 85.0899 322.696 85.7174 322.364 86.3185C322.533 85.6594 322.67 84.9949 322.77 84.3358C322.859 83.6766 322.928 83.0122 322.88 82.3794C322.859 82.063 322.812 81.7571 322.717 81.4829C322.627 81.2034 322.48 80.9714 322.306 80.7974C322.121 80.6181 321.927 80.5179 321.653 80.4494C321.426 80.3966 321.22 80.4388 321.004 80.539C320.788 80.6445 320.567 80.8238 320.372 81.0505C320.177 81.272 319.993 81.5198 319.829 81.794C319.492 82.3319 319.202 82.9173 318.949 83.5237C318.702 84.1301 318.449 84.7471 318.238 85.3799C318.032 86.0127 317.811 86.6508 317.637 87.2836L317.29 86.83C317.674 86.867 318.059 86.9355 318.449 87.0779C318.644 87.157 318.844 87.2519 319.018 87.4207C319.197 87.5841 319.313 87.8689 319.287 88.1115C319.223 88.5913 318.944 88.8866 318.686 89.1608C318.417 89.4298 318.117 89.6513 317.801 89.8464L317.795 89.8358Z" fill="#562622"/>
<path d="M294.789 74.5433C294.789 74.5433 294.789 74.2744 294.879 73.8103C294.926 73.5783 294.984 73.2935 295.09 72.9824C295.19 72.666 295.316 72.3127 295.496 71.9436C295.838 71.1947 296.386 70.3616 297.203 69.6339C297.609 69.27 298.099 68.9536 298.626 68.7005C299.163 68.4474 299.748 68.2997 300.343 68.2101C300.939 68.1626 301.539 68.1521 302.103 68.2628C302.246 68.2892 302.388 68.305 302.525 68.3366L302.925 68.4474C303.194 68.5159 303.447 68.6108 303.689 68.711C303.937 68.8059 304.169 68.9114 304.39 69.0327C304.612 69.1487 304.833 69.2542 305.028 69.3913C305.223 69.5178 305.418 69.6444 305.602 69.7657C305.776 69.9028 305.939 70.0346 306.103 70.1612C306.429 70.3985 306.688 70.6674 306.925 70.8942C307.167 71.1104 307.352 71.3319 307.499 71.5112C307.805 71.8645 307.963 72.0807 307.963 72.0807C307.963 72.0807 307.71 71.9805 307.294 71.7854C307.088 71.6852 306.835 71.5692 306.545 71.4373C306.256 71.3108 305.939 71.1526 305.586 71.0102C305.412 70.9364 305.228 70.8625 305.044 70.7834C304.854 70.7149 304.659 70.6411 304.459 70.5672C304.264 70.4881 304.053 70.4248 303.847 70.3616C303.637 70.293 303.426 70.2192 303.21 70.177C302.994 70.1243 302.778 70.061 302.551 70.0294C302.33 69.9872 302.109 69.9503 301.882 69.9344C301.434 69.8817 300.991 69.8975 300.554 69.9344C300.122 69.9924 299.695 70.0926 299.295 70.2456C298.894 70.409 298.504 70.6041 298.151 70.8414C297.798 71.084 297.461 71.3424 297.161 71.6272C296.86 71.9119 296.576 72.1914 296.333 72.4762C295.843 73.0404 295.464 73.5625 295.2 73.9369C294.942 74.3113 294.795 74.538 294.795 74.538L294.789 74.5433Z" fill="#352C38"/>
<path d="M287.233 75.0707C287.233 75.0707 287.043 74.9388 286.706 74.7121C286.543 74.6013 286.337 74.4695 286.111 74.3219C285.884 74.1742 285.615 74.0213 285.341 73.8525C284.772 73.5414 284.108 73.2039 283.408 73.0246C283.06 72.9403 282.707 72.8822 282.364 72.8875C282.022 72.8981 281.69 72.9561 281.368 73.0721C281.047 73.2039 280.731 73.3621 280.436 73.5889C280.135 73.8051 279.856 74.0687 279.587 74.3429C279.329 74.6224 279.071 74.9019 278.85 75.1972C278.612 75.482 278.407 75.772 278.207 76.0357C278.006 76.2993 277.843 76.563 277.674 76.7845C277.516 77.0112 277.374 77.2116 277.258 77.3751C277.026 77.7073 276.874 77.8919 276.874 77.8919C276.874 77.8919 276.884 77.6546 276.937 77.2485C276.968 77.0482 276.989 76.795 277.063 76.5208C277.132 76.2466 277.19 75.9197 277.311 75.5874C277.422 75.25 277.543 74.8808 277.732 74.5117C277.901 74.132 278.128 73.7523 278.391 73.3674C278.665 72.9877 278.981 72.6028 279.382 72.2705C279.766 71.9225 280.256 71.6483 280.768 71.4374C281.3 71.2581 281.869 71.1684 282.417 71.2053C282.965 71.237 283.471 71.3899 283.924 71.5797C284.377 71.7696 284.762 72.028 285.099 72.2811C285.442 72.5395 285.716 72.8242 285.963 73.0826C286.448 73.6152 286.764 74.1215 286.959 74.4853C287.154 74.8492 287.233 75.0759 287.233 75.0759V75.0707Z" fill="#352C38"/>
<path d="M289.341 97.0444L302.867 94.7611C302.867 94.7611 299.88 103.024 289.341 97.0444Z" fill="white"/>
<path d="M306.219 80.903C306.382 82.6853 305.934 84.1829 305.212 84.2462C304.49 84.3148 303.774 82.9226 303.61 81.1403C303.447 79.3579 303.895 77.8603 304.617 77.797C305.339 77.7284 306.055 79.1206 306.219 80.903Z" fill="#352C38"/>
<path d="M287.428 83.0122C287.591 84.7946 287.144 86.2922 286.422 86.3555C285.7 86.424 284.983 85.0319 284.82 83.2495C284.656 81.4671 285.104 79.9695 285.826 79.9062C286.548 79.8377 287.265 81.2298 287.428 83.0122Z" fill="#352C38"/>
<path d="M285.742 178.601C285.742 178.601 262.557 215.514 264.664 249H348.974C348.974 249 349.238 195.476 327.897 177.547C306.556 159.617 285.742 178.601 285.742 178.601Z" fill="#6F96BD"/>
<path d="M332.95 182.931C331.417 180.911 329.741 179.092 327.897 177.547C306.556 159.617 285.742 178.601 285.742 178.601C285.742 178.601 284.235 181.006 282.022 185.135C299.116 186.385 316.278 185.905 332.95 182.931Z" fill="#507CA0"/>
<path d="M271.251 139.579C271.251 139.579 262.646 184.228 270.55 191.959C278.454 199.694 285.31 180.299 286.885 171.393C289.172 158.489 277.753 140.28 277.753 140.28L271.256 139.579H271.251Z" fill="#76413B"/>
<path d="M294.7 113.212L317.358 108.73C317.358 108.73 316.831 118.749 321.047 117.958C325.262 117.167 337.645 112.685 341.07 122.704C344.495 132.724 332.376 179.129 332.376 179.129C332.376 179.129 307.083 185.193 282.844 178.338C282.844 178.338 270.724 163.926 274.587 143.798L269.144 142.216C269.144 142.216 269.671 121.386 282.317 120.331C294.963 119.277 294.7 118.486 294.7 118.486V113.212Z" fill="#FFA65B"/>
<path d="M277.016 134.696C274.913 133.995 272.906 132.565 271.198 131.02C269.28 136.578 269.138 142.21 269.138 142.21L274.344 143.724C275.567 138.519 277.016 134.691 277.016 134.691V134.696Z" fill="#ED802F"/>
<path d="M341.07 122.704C339.305 117.537 335.158 116.234 330.979 116.282C333.277 121.228 334.315 127.703 332.75 136.151C327.412 164.949 288.961 177.062 277.848 169.937C280.256 175.248 282.849 178.338 282.849 178.338C307.088 185.193 332.381 179.129 332.381 179.129C332.381 179.129 344.5 132.724 341.075 122.704H341.07Z" fill="#ED802F"/>
<path d="M315.145 156.474C318.753 156.474 321.679 153.752 321.679 150.394C321.679 147.036 318.753 144.314 315.145 144.314C311.536 144.314 308.611 147.036 308.611 150.394C308.611 153.752 311.536 156.474 315.145 156.474Z" stroke="white" stroke-width="4.19" stroke-miterlimit="10"/>
<path d="M288.06 142.11C288.06 142.11 286.469 159.971 299.837 160.772C312.104 161.511 317.258 153.527 316.278 141.989L288.06 142.11Z" fill="white"/>
<path d="M316.278 141.983C316.278 143.544 309.96 144.81 302.166 144.81C294.373 144.81 288.055 143.544 288.055 141.983C288.055 140.423 294.373 139.157 302.166 139.157C309.96 139.157 316.278 140.423 316.278 141.983Z" fill="#F9DEE1"/>
<path d="M326.052 145.733L346.603 143.624C346.603 143.624 356.262 188.093 341.861 191.964C331.901 194.637 311.472 157.16 311.472 157.16C311.472 157.16 294.083 159.269 310.418 154.697C310.418 154.697 287.407 157.334 310.065 152.235C310.065 152.235 287.054 152.936 310.945 149.598C310.945 149.598 293.73 149.772 311.825 147.315C311.825 147.315 320.082 145.733 324.646 151.708C329.319 157.83 336.591 170.517 336.591 170.517L331.148 175.089L326.052 145.733Z" fill="#965450"/>
<path d="M334.083 151.091C336.523 150.985 338.968 150.853 341.407 150.732C343.499 150.626 345.66 150.479 347.815 150.189C347.167 146.213 346.603 143.624 346.603 143.624L326.052 145.733L326.885 150.521C329.103 151.349 331.907 151.18 334.083 151.091Z" fill="#76413B"/>
<path d="M324.298 148.543C324.298 148.543 339.579 150.479 349.591 146.787C349.591 146.787 350.292 116.028 331.849 116.376C314.808 116.703 324.298 148.543 324.298 148.543Z" fill="#FFA65B"/>
<path d="M274.302 194.332C283.054 195.444 293.256 155.467 293.256 155.467C293.256 155.467 308.073 154.893 293.688 152.889C293.688 152.889 313.269 151.971 293.535 150.416C293.535 150.416 312.768 147.6 292.329 147.958C292.329 147.958 306.656 145.506 291.185 145.844C291.185 145.844 285.373 144.91 281.431 150.837C277.495 156.759 269.486 172.811 269.486 172.811C269.486 172.811 261.634 192.734 274.291 194.342L274.302 194.332Z" fill="#965450"/>
</g>
<g filter="url(#filter1_d_478_1591)">
<path d="M155.167 13.7843C155.167 13.7843 161.011 -1.85099 147.295 0.184505C133.578 2.22 136.245 14.2906 141.451 16.7058C141.451 16.7058 132.688 14.6703 134.975 5.14141C134.975 5.14141 123.034 22.3007 147.168 23.9513C171.297 25.6018 155.167 13.7843 155.167 13.7843Z" fill="#965450"/>
<path d="M154.86 24.578C158.146 23.7323 160.126 20.3806 159.281 17.0918C158.436 13.803 155.086 11.8224 151.8 12.668C148.514 13.5137 146.535 16.8653 147.38 20.1542C148.225 23.443 151.574 25.4236 154.86 24.578Z" fill="#6F96BD"/>
<path d="M214.442 33.1901L196.995 37.1081" stroke="#5D8584" stroke-width="2.09" stroke-miterlimit="10"/>
<path d="M142.468 90.9011C142.468 90.9011 162.66 77.8286 164.399 74.8386C166.138 71.8486 164.051 46.078 164.051 46.078L191.905 45.7036L192.601 75.5821C192.601 75.5821 213.836 81.9312 219.754 87.9058C225.671 93.8805 138.637 106.584 142.463 90.8958L142.468 90.9011Z" fill="#FFAC9D"/>
<path d="M201.617 79.1363C201.875 79.0572 202.133 78.9887 202.386 78.9148C197.016 76.911 192.595 75.5874 192.595 75.5874L191.9 45.7089L164.046 46.0833C164.046 46.0833 164.583 53.2655 164.884 60.743C166.449 76.9004 179.796 85.6699 201.611 79.1416L201.617 79.1363Z" fill="#E88A7E"/>
<path d="M164.215 51.6836C164.215 51.6836 171.212 76.0568 193.328 74.6541C215.443 73.2514 206.765 44.9601 204.525 39.9188C202.286 34.8776 198.365 12.466 182.41 15.5456C166.454 18.6252 158.618 30.1105 164.215 51.6836Z" fill="#FFAC9D"/>
<path d="M165.326 44.5698C165.326 44.5698 162.407 31.8717 156.079 40.1508C149.75 48.4299 159.73 60.5796 166.301 54.779C172.872 48.9836 165.326 44.5646 165.326 44.5646V44.5698Z" fill="#FFAC9D"/>
<path d="M154.013 45.3767C154.013 45.3767 155.388 35.7108 162.091 39.5708C167.719 42.8139 159.035 69.6128 181.851 76.4734C204.667 83.3392 220.059 68.7691 208.166 53.7824C208.166 53.7824 207.745 63.1688 206.069 63.5854C202.918 64.3711 206.907 50.2809 201.311 48.3192C197.311 46.9165 180.455 46.2204 180.597 55.3222C180.739 64.4239 179.617 63.1636 176.677 61.7661C173.736 60.3634 167.16 30.5324 167.16 30.5324C167.16 30.5324 174.859 28.8502 174.158 20.5869C174.158 20.5869 186.193 13.7211 195.573 20.1651C195.573 20.1651 183.116 -1.6875 159.741 11.3428C135.612 24.7897 154.018 45.3767 154.018 45.3767H154.013Z" fill="#965450"/>
<path d="M183.39 53.7823L202.006 53.6399C202.006 53.6399 198.787 62.325 183.39 53.7823Z" fill="white"/>
<path d="M162.434 53.6926C162.297 53.603 162.175 53.5028 162.054 53.392C161.933 53.2813 161.822 53.16 161.727 53.0229C161.633 52.8858 161.548 52.7329 161.49 52.5641C161.453 52.485 161.448 52.3901 161.427 52.3005C161.406 52.2108 161.422 52.1159 161.427 52.0263C161.427 51.9313 161.459 51.8417 161.485 51.752C161.506 51.6571 161.543 51.5728 161.596 51.4937C161.643 51.4146 161.68 51.3249 161.743 51.2616L161.917 51.056C161.975 50.9874 162.049 50.94 162.112 50.8767C162.181 50.8239 162.249 50.7607 162.318 50.7132L162.755 50.439L162.571 50.7238C162.523 49.8958 162.465 49.0521 162.376 48.2242C162.281 47.3963 162.186 46.5684 162.033 45.7563C161.88 44.9442 161.706 44.1427 161.432 43.3991C161.158 42.6714 160.8 41.9332 160.278 41.5851C160.015 41.4111 159.767 41.3478 159.409 41.3636C159.093 41.3847 158.813 41.4902 158.545 41.7011C158.028 42.1335 157.654 42.8665 157.412 43.6312C157.159 44.4011 157.001 45.2184 156.88 46.0463C156.764 46.8742 156.679 47.718 156.632 48.567C156.484 47.7285 156.411 46.8742 156.405 46.0147C156.4 45.5823 156.416 45.1551 156.458 44.7227C156.5 44.2903 156.553 43.8579 156.653 43.4255C156.753 42.9931 156.88 42.5607 157.069 42.1388C157.259 41.717 157.523 41.3004 157.902 40.9576C158.271 40.6148 158.803 40.367 159.33 40.3143C159.815 40.2404 160.436 40.3723 160.874 40.6781C161.327 40.9734 161.643 41.3742 161.896 41.775C162.149 42.181 162.323 42.6029 162.47 43.0247C162.76 43.8737 162.945 44.7333 163.066 45.5928C163.177 46.4524 163.256 47.3119 163.271 48.1662C163.292 49.0257 163.282 49.8747 163.219 50.7396L163.203 50.9452L163.034 51.0243L162.634 51.2142C162.571 51.2511 162.513 51.288 162.449 51.3302C162.391 51.3671 162.323 51.404 162.27 51.4462L162.112 51.5833C162.054 51.6255 162.023 51.6835 161.98 51.7362C161.933 51.789 161.896 51.8417 161.875 51.905C161.849 51.963 161.812 52.021 161.806 52.0895C161.796 52.1528 161.77 52.2214 161.775 52.2899C161.775 52.3585 161.764 52.427 161.785 52.5009C161.806 52.6432 161.849 52.7856 161.912 52.9227C162.038 53.1969 162.217 53.4659 162.439 53.6979L162.434 53.6926Z" fill="#CC665E"/>
<path d="M187.584 28.9661C187.584 28.9661 187.51 28.9503 187.379 28.9292C187.252 28.8976 187.052 28.8765 186.82 28.8185C186.346 28.7341 185.698 28.6075 184.96 28.4862C184.222 28.3649 183.395 28.2595 182.557 28.2068C182.136 28.1909 181.714 28.1751 181.298 28.1909C180.876 28.2067 180.46 28.2331 180.049 28.2964C179.638 28.3439 179.232 28.4335 178.827 28.5284C178.621 28.5706 178.431 28.6497 178.226 28.6919C178.026 28.7446 177.836 28.8343 177.636 28.887C177.246 29.0294 176.861 29.177 176.492 29.3405C176.297 29.4091 176.129 29.5093 175.949 29.5884C175.77 29.6675 175.591 29.7466 175.428 29.8309C175.096 29.9997 174.769 30.1473 174.49 30.3003C174.205 30.4479 173.931 30.5639 173.726 30.6799C173.52 30.7959 173.331 30.8698 173.209 30.933C173.083 30.9858 173.014 31.0174 173.014 31.0174C173.014 31.0174 173.025 30.9436 173.057 30.8118C173.093 30.6852 173.13 30.4848 173.215 30.2475C173.288 30.0049 173.394 29.7202 173.547 29.4091C173.684 29.0874 173.889 28.7499 174.121 28.386C174.363 28.0275 174.658 27.6531 175.006 27.2892C175.359 26.9253 175.77 26.572 176.239 26.2504C176.713 25.9392 177.235 25.6439 177.804 25.433C178.368 25.2062 178.979 25.0586 179.596 24.9689C179.907 24.9268 180.218 24.9162 180.523 24.9004C180.829 24.9004 181.14 24.9057 181.44 24.9426C182.046 24.99 182.62 25.1324 183.158 25.3012C184.228 25.6545 185.118 26.1871 185.782 26.7355C186.457 27.2839 186.91 27.8482 187.189 28.27C187.337 28.4704 187.426 28.6603 187.489 28.7763C187.553 28.8976 187.579 28.9661 187.579 28.9661H187.584Z" fill="#76413B"/>
<path d="M192.706 28.2859C192.706 28.2859 192.69 28.2332 192.674 28.1382C192.664 28.0486 192.637 27.9009 192.637 27.7322C192.627 27.3842 192.669 26.9096 192.854 26.3717C193.043 25.8391 193.365 25.2379 193.939 24.7106C194.218 24.4364 194.577 24.1991 194.982 24.0092C195.388 23.8141 195.868 23.6981 196.358 23.6612C196.848 23.6296 197.343 23.7034 197.791 23.8405C198.234 23.9881 198.623 24.1991 198.934 24.4522C199.256 24.6948 199.498 24.9743 199.709 25.2432C199.899 25.5227 200.057 25.7916 200.162 26.0553C200.383 26.5773 200.452 27.0519 200.462 27.3947C200.478 27.5582 200.462 27.7058 200.462 27.7955C200.462 27.8904 200.452 27.9431 200.452 27.9431C200.452 27.9431 200.399 27.9326 200.304 27.9168C200.215 27.8957 200.073 27.8746 199.92 27.8218C199.767 27.7796 199.588 27.7322 199.377 27.6742C199.177 27.6162 198.966 27.5476 198.745 27.4896C198.313 27.3578 197.854 27.2365 197.475 27.1785C197.285 27.1521 197.116 27.1416 196.974 27.1363C196.832 27.1363 196.711 27.1363 196.584 27.1469C196.458 27.1627 196.331 27.1574 196.173 27.189C196.015 27.2154 195.836 27.247 195.636 27.2998C195.241 27.4 194.793 27.5634 194.366 27.7164C193.939 27.8746 193.528 28.0169 193.222 28.1224C193.08 28.1804 192.938 28.2121 192.854 28.2437C192.764 28.2701 192.711 28.2859 192.711 28.2859H192.706Z" fill="#76413B"/>
<path d="M179.996 37.1345C180.123 39.1436 179.638 40.81 178.916 40.8521C178.194 40.8943 177.509 39.3071 177.383 37.2979C177.256 35.2888 177.741 33.6224 178.463 33.5803C179.185 33.5328 179.87 35.1253 179.996 37.1345Z" fill="#171219"/>
<path d="M199.604 36.9446C199.73 38.9538 199.245 40.6201 198.523 40.6623C197.802 40.7098 197.116 39.1172 196.99 37.1081C196.864 35.099 197.348 33.4326 198.07 33.3904C198.792 33.343 199.477 34.9355 199.604 36.9446Z" fill="#171219"/>
<path d="M179.907 49.2526C184.968 49.2526 189.07 44.9179 189.07 39.5708C189.07 34.2237 184.968 29.889 179.907 29.889C174.846 29.889 170.743 34.2237 170.743 39.5708C170.743 44.9179 174.846 49.2526 179.907 49.2526Z" stroke="#5D8584" stroke-width="2.12" stroke-miterlimit="10"/>
<path d="M203.972 45.8355C208.876 45.8355 212.851 41.5008 212.851 36.1537C212.851 30.8066 208.876 26.4719 203.972 26.4719C199.068 26.4719 195.093 30.8066 195.093 36.1537C195.093 41.5008 199.068 45.8355 203.972 45.8355Z" stroke="#5D8584" stroke-width="2.09" stroke-miterlimit="10"/>
<path d="M192.026 32.8473C192.522 33.2955 192.959 33.807 193.354 34.3449C193.765 34.8775 194.113 35.4523 194.45 36.0324C194.624 36.3224 194.766 36.623 194.919 36.9235C195.077 37.2241 195.214 37.5247 195.346 37.8358C195.478 38.147 195.615 38.4528 195.725 38.7692C195.841 39.0856 195.968 39.3967 196.073 39.7184L196.363 40.6834C196.468 41.0051 196.537 41.332 196.616 41.659C196.695 41.9859 196.779 42.3129 196.832 42.6398L197.006 43.6312C197.138 44.2904 197.169 44.9601 197.243 45.6245C197.301 46.2889 197.306 46.9639 197.327 47.6284L197.343 48.0819L196.916 48.0608C196.537 48.0449 196.158 48.0186 195.778 47.9922C195.399 47.9658 195.019 47.9447 194.64 47.9026C193.881 47.834 193.122 47.7602 192.364 47.6494C193.122 47.5387 193.881 47.4649 194.64 47.3963C195.019 47.3594 195.399 47.3383 195.778 47.3067C196.158 47.2803 196.537 47.2539 196.916 47.2381L196.511 47.6705L196.379 46.7002C196.331 46.3786 196.31 46.0516 196.258 45.73L196.1 44.7702C196.047 44.4486 196.005 44.1269 195.936 43.8105L195.752 42.856C195.694 42.5396 195.599 42.2285 195.536 41.9068C195.462 41.5904 195.404 41.274 195.309 40.9629L195.051 40.0295L194.772 39.1014C194.682 38.7903 194.571 38.4844 194.466 38.1786C194.266 37.5616 194.029 36.9552 193.781 36.3593C193.539 35.7529 193.27 35.1623 192.98 34.5769C192.838 34.2816 192.68 33.9969 192.527 33.7016C192.364 33.4168 192.211 33.1215 192.026 32.8473Z" fill="#CC665E"/>
<path d="M188.949 36.8339C188.949 36.8339 191.452 32.9633 195.093 36.1484" stroke="#5D8584" stroke-width="2.09" stroke-miterlimit="10"/>
<path d="M170.97 41.1633L163.914 42.6451" stroke="#5D8584" stroke-width="2.09" stroke-miterlimit="10"/>
<path d="M239.514 129.839C239.514 129.839 243.155 200.433 227.758 228.165C214.226 252.538 225.518 134.88 225.518 134.88L239.514 129.839Z" fill="#E88A7E"/>
<path d="M192.611 234.382L193.291 249H225.539L225.882 204.483L192.611 234.382Z" fill="#604854"/>
<path d="M143.221 193.15C142.942 198.471 142.373 249 142.373 249H187.69L188.132 240.694C188.132 240.694 205.173 239.476 225.102 234.266L226.641 193.989L143.221 193.15Z" fill="#765E69"/>
<path d="M226.225 204.905L226.641 193.989L143.221 193.15C143.1 195.434 142.868 204.667 142.71 216.037C168.509 216.037 206.87 213.321 226.225 204.905Z" fill="#604854"/>
<path d="M207.602 80.8132C207.602 80.8132 229.476 85.9442 235.593 93.9807C240.072 99.8657 243.429 134.042 243.429 134.042C243.429 134.042 229.713 137.965 218.795 137.686C207.876 137.406 207.597 80.8185 207.597 80.8185L207.602 80.8132Z" fill="#6F96BD"/>
<path d="M226.746 121.666C221.983 123.901 217.024 125.568 211.971 126.934C213.583 133.225 215.786 137.607 218.8 137.686C229.718 137.965 243.434 134.042 243.434 134.042C243.434 134.042 242.317 122.704 240.52 111.963C236.637 115.949 231.989 119.208 226.751 121.666H226.746Z" fill="#507CA0"/>
<path d="M155.541 79.6953C155.541 79.6953 138.863 83.4499 132.308 92.8627C125.706 102.339 141.546 209.677 141.546 209.677C141.546 209.677 202.012 213.036 227.763 204.077C227.763 204.077 231.12 114.436 227.204 90.9011C227.204 90.9011 219.927 84.1776 207.608 80.8185C207.608 80.8185 203.687 93.1422 183.532 92.5833C163.377 92.0243 155.541 79.6953 155.541 79.6953Z" fill="#6F96BD"/>
<path d="M166.76 138.614C161.648 135.218 156.6 131.5 152.264 127.139C147.663 122.504 143.664 117.347 139.801 112.089C136.803 108.013 133.815 103.916 130.643 99.9976C128.752 126.148 141.54 209.672 141.54 209.672C141.54 209.672 202.006 213.031 227.758 204.071C227.758 204.071 228.416 186.49 228.812 164.859C207.144 158.705 185.487 151.075 166.76 138.614Z" fill="#507CA0"/>
<path d="M215.095 154.893L216.803 187.598C216.803 187.598 232.864 195.086 247.218 186.796L245.779 153.817L215.095 154.893Z" fill="#FFA65B"/>
<path d="M227.858 157.777C220.244 157.777 215.459 156.2 215.391 154.74C215.359 154.091 216.402 153.052 219.411 152.077C222.251 151.159 226.061 150.547 230.145 150.352C231.03 150.31 231.915 150.289 232.779 150.289C240.394 150.289 245.178 151.866 245.252 153.326C245.326 154.861 239.746 157.271 230.493 157.709C229.607 157.751 228.722 157.772 227.853 157.772L227.858 157.777Z" fill="#E07B2F"/>
<path d="M232.785 150.822C241.089 150.822 244.693 152.636 244.725 153.358C244.736 153.558 244.14 154.497 241.068 155.494C238.27 156.395 234.508 157.002 230.471 157.192C229.597 157.234 228.717 157.255 227.858 157.255C219.553 157.255 215.949 155.441 215.918 154.719C215.907 154.518 216.502 153.58 219.574 152.583C222.372 151.681 226.135 151.075 230.171 150.885C231.046 150.843 231.926 150.822 232.785 150.822ZM232.785 149.767C231.921 149.767 231.03 149.788 230.124 149.83C221.587 150.231 214.753 152.441 214.864 154.766C214.964 156.844 220.57 158.304 227.858 158.304C228.722 158.304 229.613 158.283 230.519 158.241C239.055 157.84 245.89 155.631 245.779 153.305C245.679 151.228 240.072 149.767 232.785 149.767Z" fill="#FFA65B"/>
<path d="M214.321 183.084C208.214 183.084 203.239 177.452 203.239 170.523C203.239 163.594 208.208 157.967 214.321 157.967C220.433 157.967 225.402 163.599 225.402 170.523C225.402 177.446 220.433 183.084 214.321 183.084ZM214.321 161.094C209.931 161.094 206.364 165.323 206.364 170.528C206.364 175.733 209.931 179.962 214.321 179.962C218.71 179.962 222.278 175.733 222.278 170.528C222.278 165.323 218.71 161.094 214.321 161.094Z" fill="#FFA65B"/>
<path d="M124.563 116.856C124.32 118.707 115.979 169.146 124.188 179.978C130.443 188.23 230.187 184.834 213.388 177.362C213.388 177.362 219.733 174.003 212.64 173.254C212.64 173.254 217.867 168.397 211.892 168.023C211.892 168.023 214.879 165.782 210.4 164.29C210.4 164.29 205.642 164.105 204.52 164.105C203.398 164.105 204.52 155.515 195.562 163.731L153.291 157.94C153.291 157.94 163.366 102.66 152.917 97.8038C142.468 92.947 128.657 85.48 124.552 116.851L124.563 116.856Z" fill="#FFAC9D"/>
<path d="M155.42 144.214C157.665 127.503 160.004 101.094 152.928 97.809C142.478 92.9523 128.667 85.4853 124.563 116.856C124.457 117.658 122.834 127.561 121.696 139.415C131.94 144.362 143.812 145.411 155.425 144.214H155.42Z" fill="#E88A7E"/>
<path d="M146.299 82.7749C146.299 82.7749 127.545 88.3751 123.345 104.343C119.146 120.31 119.146 132.354 119.146 132.354C119.146 132.354 131.181 142.722 159.177 138.239C159.177 138.239 167.013 100.419 146.299 82.7749Z" fill="#6F96BD"/>
</g>
<g filter="url(#filter2_d_478_1591)">
<path d="M74.3666 101.084C69.6822 99.4809 78.7402 75.3925 78.7402 75.3925L58.1739 75.6139C58.1739 75.6139 57.7576 93.5801 55.2125 100.451C53.4841 105.129 46.9132 98.6952 40.7428 99.1909C40.9536 103.072 41.0695 106.969 41.5754 110.813C42.155 115.222 42.9454 119.593 43.2089 124.039C43.5514 129.871 43.9571 135.735 43.9202 141.578C49.2476 144.995 54.2218 146.603 54.9068 146.941C56.7459 147.842 92.2456 141.077 97.1513 113.872C102.057 86.6668 79.0511 102.682 74.3666 101.079V101.084Z" fill="#F19C7C"/>
<path d="M65.6774 98.827C62.2102 100.119 58.7429 100.441 55.3547 100.061C57.7786 92.9315 58.1791 75.6139 58.1791 75.6139L78.7454 75.3925C78.7454 75.3925 75.6523 83.4606 74.0452 90.4477C71.9374 94.0389 69.5767 97.3768 65.6721 98.8323L65.6774 98.827Z" fill="#E27654"/>
<path d="M66.4783 40.7415C66.4783 40.7415 52.3301 30.4639 41.8915 42.9141C17.3046 72.2284 48.9419 96.4698 48.9419 96.4698L66.4783 40.7415Z" fill="#171219"/>
<path d="M72.712 44.512C72.712 44.512 49.4056 37.103 44.2943 64.3818C38.556 95.0144 61.9835 97.6089 70.9784 88.8499C79.9732 80.091 89.4211 58.8554 72.712 44.512Z" fill="#F19C7C"/>
<path d="M92.6671 53.234C91.9136 50.6923 90.5857 47.9871 88.4727 45.1501C75.9105 28.2966 57.1094 34.4136 57.062 46.2205C57.062 46.2205 57.2622 61.0069 74.4351 65.5261C74.4351 65.5261 71.5422 72.4025 76.2425 76.5631C76.2425 76.5631 76.4322 76.0463 76.7747 75.2501C75.8368 85.8599 72.9913 95.199 72.9913 95.199C80.4053 94.8351 87.2766 85.6068 87.2766 85.6068C98.3001 69.9609 93.5998 55.6703 92.6671 53.2288V53.234Z" fill="#352C38"/>
<path d="M78.0499 69.8712C78.0499 69.8712 80.3631 63.3165 84.742 68.2418C87.6348 71.5007 82.5288 81.3354 76.6587 79.7534C74.5457 79.1839 78.0499 69.8712 78.0499 69.8712Z" fill="#F19C7C"/>
<path d="M79.3198 77.6548C79.5359 77.3964 79.7308 77.1274 79.8942 76.8532C80.0523 76.5843 80.1998 76.2679 80.1577 76.0675C80.1313 75.9779 80.0997 75.9462 80.0101 75.8987C79.9205 75.8566 79.7888 75.8249 79.6571 75.8091C79.3778 75.7827 79.0669 75.7933 78.756 75.8197L78.3029 75.8618L78.3187 75.3609C78.3397 74.8125 78.3924 74.2851 78.4715 73.7525C78.54 73.2199 78.6401 72.6873 78.7718 72.1653C78.9088 71.6379 79.0511 71.1106 79.2724 70.5991C79.4937 70.0876 79.7467 69.5708 80.1471 69.1015C80.3526 68.8747 80.6003 68.6532 80.9112 68.495C81.0745 68.4107 81.2168 68.3632 81.4276 68.3157C81.5014 68.3052 81.5382 68.2947 81.6384 68.2894C81.7385 68.2894 81.8439 68.2736 81.9334 68.2894C82.3023 68.3263 82.6606 68.5161 82.8925 68.7587C83.1296 69.0013 83.2824 69.2755 83.3931 69.5444C83.6038 70.0929 83.6934 70.636 83.7198 71.1791C83.7514 71.717 83.7198 72.2549 83.646 72.7822C83.5511 72.2602 83.4247 71.7487 83.2877 71.253C83.1401 70.7626 82.9768 70.2721 82.7291 69.8714C82.6079 69.6763 82.4709 69.497 82.3234 69.381C82.1706 69.2702 82.0283 69.228 81.8702 69.2333C81.8281 69.228 81.807 69.2438 81.7754 69.2386C81.7437 69.2386 81.6542 69.2649 81.6015 69.2755C81.5593 69.2966 81.4539 69.3282 81.3907 69.3757C81.2379 69.4706 81.0956 69.613 80.9639 69.7817C80.6951 70.1245 80.4738 70.5622 80.2947 71.0157C80.1208 71.4745 79.9522 71.949 79.8204 72.4395C79.694 72.9299 79.5675 73.4256 79.4568 73.9318C79.3515 74.4328 79.2513 74.9443 79.1618 75.44L78.7297 74.9759C79.0775 74.9917 79.4358 75.0128 79.8046 75.1236C79.989 75.1816 80.1787 75.2501 80.3684 75.3978C80.458 75.4716 80.5476 75.5665 80.6056 75.6878C80.6741 75.8038 80.6846 75.9409 80.6793 76.0622C80.6635 76.3048 80.5634 76.4788 80.4633 76.637C80.3632 76.7899 80.2473 76.9271 80.1208 77.0431C79.8731 77.2856 79.5991 77.486 79.3146 77.66L79.3198 77.6548Z" fill="#CE5332"/>
<path d="M53.3681 80.3653C53.7106 81.1404 53.5104 82.174 52.8781 82.8701C52.5725 83.2287 52.1825 83.4871 51.7768 83.6874C51.3711 83.8931 50.9442 84.0144 50.5174 84.104L50.6913 83.1074C50.9021 83.2234 51.1392 83.3552 51.3658 83.4765C51.5976 83.5978 51.8295 83.7138 52.0666 83.8245C52.5303 84.0618 53.0098 84.2622 53.4893 84.4626C53.9741 84.6525 54.4589 84.8265 54.9648 84.9478C55.2177 85.0163 55.4706 85.0638 55.7341 85.0954C55.9923 85.127 56.261 85.1429 56.535 85.127C56.2926 85.2589 56.0239 85.3485 55.7446 85.4065C55.4653 85.4645 55.1861 85.4856 54.9015 85.4909C54.3377 85.4909 53.7739 85.4171 53.2311 85.2852C52.6831 85.164 52.1615 84.9741 51.6398 84.7737C51.3816 84.6683 51.1287 84.5575 50.881 84.431C50.6281 84.3044 50.3909 84.1831 50.138 84.0355L48.9155 83.2972L50.3119 83.0388C50.6808 82.9703 51.0338 82.8806 51.371 82.7593C51.7083 82.6381 52.0192 82.4746 52.2985 82.2689C52.5725 82.058 52.8201 81.7996 52.994 81.4727C53.1784 81.151 53.3049 80.7766 53.3576 80.36L53.3681 80.3653Z" fill="#CE5332"/>
<path d="M60.6874 69.5602C60.6874 69.5602 60.6874 69.7711 60.7032 70.1455C60.7085 70.3248 60.7243 70.541 60.7453 70.7889C60.7611 71.0367 60.8033 71.3109 60.856 71.601C60.8823 71.7486 60.9087 71.8963 60.9561 72.0492C60.993 72.2021 61.0299 72.3551 61.0878 72.508C61.1827 72.8191 61.346 73.1091 61.5094 73.3834C61.6886 73.647 61.9204 73.8579 62.1733 74.0214C62.4473 74.1533 62.7266 74.2851 63.0691 74.3009C63.2272 74.3378 63.4116 74.3167 63.5855 74.322H63.6488H63.6804H63.7067C63.6909 74.322 63.7436 74.322 63.6751 74.322L63.8279 74.3009C63.9228 74.2851 64.0545 74.2798 64.1072 74.2587C64.3759 74.206 64.7237 74.0794 64.9977 73.9107C65.5721 73.5732 66.0463 73.0828 66.4257 72.624C66.7946 72.1599 67.0791 71.7275 67.2741 71.4164L67.5797 70.9207C67.5797 70.9207 67.5797 71.1369 67.5112 71.5061C67.448 71.8752 67.3268 72.4025 67.0475 73.0037C66.9105 73.3043 66.7366 73.6259 66.5048 73.9371C66.2782 74.2534 65.9936 74.5698 65.63 74.8335C65.2612 75.1024 64.8818 75.3397 64.3443 75.4663C64.202 75.5085 64.1283 75.5138 64.0176 75.5349L63.8648 75.5612H63.8174L63.8068 75.5665H63.7858H63.7436H63.654C63.4169 75.577 63.1798 75.5981 62.9269 75.556C62.4368 75.5243 61.9309 75.3187 61.5041 75.0444C61.0773 74.7491 60.7717 74.3431 60.5504 73.9371C60.3449 73.5257 60.2237 73.1091 60.1762 72.7189C60.1077 72.3287 60.113 71.9648 60.1394 71.6326C60.1552 71.3004 60.2079 71.0051 60.2711 70.7467C60.3238 70.4883 60.4028 70.2668 60.4661 70.0928C60.524 69.9135 60.5978 69.787 60.6347 69.692C60.6768 69.6024 60.6979 69.5549 60.6979 69.5549L60.6874 69.5602Z" fill="#171219"/>
<path d="M56.0081 65.7476C55.987 66.2432 55.9291 66.7389 55.8342 67.2294C55.7499 67.7198 55.6234 68.2049 55.4917 68.6848C55.3547 69.1647 55.1861 69.634 55.0069 70.1033C54.9226 70.3406 54.8172 70.5674 54.7119 70.7941C54.6065 71.0209 54.5063 71.2529 54.3851 71.4744C54.2692 71.6958 54.1586 71.9226 54.0268 72.1388L53.6264 72.7821C53.4999 72.9983 53.3418 73.1987 53.1995 73.4097C53.052 73.6153 52.9045 73.821 52.7306 74.0108L52.2352 74.5856C52.0614 74.7702 51.8822 74.9495 51.6978 75.1235C51.5186 75.3028 51.3289 75.4715 51.1287 75.6297L50.5332 76.1043V75.3766C51.6609 76.3944 52.7675 77.4385 53.7792 78.588C52.4355 77.8392 51.1814 76.9797 49.9483 76.099L49.511 75.7879L49.9483 75.3713L50.4595 74.8862C50.6334 74.728 50.7967 74.5592 50.9495 74.38L51.429 73.8632L51.8769 73.3147C52.0297 73.1355 52.1615 72.9351 52.2985 72.7505C52.4355 72.5607 52.5883 72.3761 52.7148 72.1757L53.1047 71.5798L53.4788 70.9734C53.7317 70.5674 53.9531 70.1455 54.1796 69.7236C54.4115 69.307 54.6117 68.8694 54.833 68.4369C55.2493 67.5616 55.6393 66.6757 56.0081 65.7528V65.7476Z" fill="#CE5332"/>
<path d="M45.7856 66.8181C45.7856 66.8181 45.7961 67.0238 45.8225 67.3876C45.8488 67.7462 45.891 68.2472 45.9964 68.8167C46.0596 69.1015 46.1176 69.402 46.2177 69.7079C46.3178 70.0085 46.4443 70.309 46.6076 70.5727C46.7762 70.8364 46.9712 71.0684 47.2136 71.2213C47.4507 71.3848 47.73 71.4797 48.0514 71.5166C48.2095 71.5324 48.3781 71.543 48.5467 71.5324H48.61H48.6416H48.6574C48.689 71.5324 48.6152 71.5377 48.6258 71.5377H48.6363L48.7839 71.5166C48.884 71.5008 48.9946 71.4903 49.0473 71.4639C49.3108 71.4059 49.6428 71.2582 49.9062 71.0789C50.1802 70.8996 50.4384 70.6834 50.6492 70.4409C50.8758 70.2088 51.076 69.9663 51.2394 69.7237C51.5872 69.2491 51.8348 68.8061 52.0034 68.495C52.1721 68.1786 52.2722 67.9993 52.2722 67.9993C52.2722 67.9993 52.2669 68.205 52.2089 68.5689C52.151 68.9274 52.0351 69.4389 51.7979 70.0348C51.5555 70.6202 51.1761 71.3004 50.5227 71.8805C50.1908 72.1758 49.8219 72.4131 49.3161 72.5713C49.1791 72.6187 49.0948 72.6346 48.9946 72.6557L48.8471 72.6873L48.7259 72.7031L48.6416 72.7137C48.4097 72.7453 48.1673 72.7453 47.925 72.7348C47.4402 72.6926 46.9185 72.5344 46.5075 72.2233C46.0859 71.9227 45.7909 71.5166 45.6012 71.1106C45.4115 70.7045 45.3061 70.2985 45.2587 69.9135C45.2112 69.5339 45.2007 69.1753 45.2323 68.8536C45.2797 68.2103 45.4273 67.6935 45.5537 67.3507C45.6802 67.0027 45.7856 66.8181 45.7856 66.8181Z" fill="#171219"/>
<path d="M58.0105 63.3588C58.0105 63.3588 58.1159 63.0952 58.3846 62.6891C58.6534 62.2778 59.0907 61.7241 59.7389 61.1599C60.387 60.6062 61.2564 60.0367 62.3314 59.6992C62.8636 59.5199 63.4432 59.4144 64.0439 59.3775C64.6446 59.3248 65.2559 59.3986 65.8566 59.4988C66.4468 59.6359 67.0317 59.8099 67.5586 60.0683C67.8273 60.1896 68.0855 60.3214 68.3226 60.4744C68.5703 60.6167 68.8022 60.7644 69.0182 60.9384C69.4661 61.2548 69.8402 61.6134 70.188 61.9561C70.5252 62.3095 70.8256 62.6522 71.0733 62.995C71.3315 63.3219 71.5317 63.6542 71.7056 63.9495C71.89 64.2342 72.0165 64.4979 72.1219 64.7194C72.3326 65.157 72.4275 65.4154 72.4275 65.4154C72.4275 65.4154 72.1904 65.2572 71.811 64.9672C71.4368 64.6772 70.8994 64.2711 70.2565 63.8176C69.9456 63.5803 69.5926 63.3536 69.229 63.111C68.8601 62.8843 68.4755 62.6364 68.0644 62.4307C67.8642 62.32 67.6587 62.2145 67.4427 62.1196C67.2319 62.0142 67.0158 61.9298 66.7998 61.8454C66.3677 61.6714 65.9198 61.5501 65.4667 61.4499C65.0135 61.3708 64.5603 61.3023 64.1072 61.3075C63.654 61.3075 63.2061 61.3339 62.7687 61.4077C61.894 61.5448 61.0667 61.8296 60.3659 62.1249C59.6598 62.4202 59.0749 62.7366 58.6639 62.9686C58.2529 63.2007 58.0158 63.3536 58.0158 63.3536L58.0105 63.3588Z" fill="#171219"/>
<path d="M55.0491 62.8895C55.0491 62.8895 54.87 62.7629 54.5802 62.5415C54.2851 62.3252 53.8741 62.0247 53.3998 61.6872C52.4408 61.0227 51.1919 60.2107 49.9378 59.9523C49.6269 59.8732 49.3108 59.8415 48.9999 59.831C48.689 59.8204 48.3728 59.8362 48.0619 59.8837C47.7511 59.9259 47.4402 59.9944 47.1451 60.0788C46.9923 60.1105 46.85 60.1685 46.7077 60.2159C46.5654 60.2634 46.4232 60.3056 46.2914 60.3636C46.0227 60.469 45.7698 60.5587 45.5485 60.6642C45.3271 60.7591 45.1164 60.8382 44.953 60.9173C44.6211 61.0702 44.4103 61.144 44.4103 61.144C44.4103 61.144 44.4946 60.9436 44.6737 60.6114C44.8582 60.2792 45.1585 59.831 45.6275 59.3617C45.8646 59.1296 46.1386 58.8923 46.4653 58.6761C46.792 58.4599 47.1662 58.2595 47.5824 58.1119C47.7932 58.0328 48.0093 57.9642 48.2358 57.922C48.4624 57.864 48.6995 57.8377 48.9367 57.8218C49.4162 57.7797 49.9062 57.8271 50.3805 57.9326C51.329 58.1435 52.1668 58.6234 52.8149 59.1665C53.463 59.715 53.9373 60.3267 54.2693 60.8804C54.9385 61.9983 55.0386 62.8842 55.0386 62.8842L55.0491 62.8895Z" fill="#171219"/>
<path d="M41.8072 151.84C41.8072 151.84 14.6225 171.926 16.1875 208.834C17.3784 236.83 26.6419 249 26.6419 249H62.1943L61.151 218.605L73.1757 249H111.863C111.863 249 113.555 187.609 79.5095 158.326C45.4694 129.043 41.8072 151.84 41.8072 151.84Z" fill="#965450"/>
<path d="M77.8865 156.949C45.3534 129.771 41.8071 151.84 41.8071 151.84C41.8071 151.84 39.7521 153.363 36.8118 156.322C50.412 159.565 64.4917 160.393 77.8865 156.949Z" fill="#76413B"/>
<path d="M16.9095 195.334C16.2666 199.547 15.9874 204.045 16.1876 208.833C17.3785 236.829 26.642 249 26.642 249H62.1944L61.1827 219.612C43.7253 218.331 29.3136 207.889 16.9095 195.334Z" fill="#76413B"/>
<path d="M28.7391 110.581C28.7391 110.581 -4.21548 150.479 1.21197 155.91C6.95557 161.658 15.3128 168.936 34.4775 139.352C51.7452 112.696 28.7391 110.581 28.7391 110.581Z" fill="#E27654"/>
<path d="M47.4506 99.792C47.4506 99.792 44.9898 113.302 56.7089 116.208C68.428 119.113 78.0709 107.227 78.6611 100.219C78.6611 100.219 99.9335 86.8355 99.1115 113.392C98.2895 139.948 79.4515 156.406 79.4515 156.406L38.7035 153.743C38.7035 153.743 29.1817 141.256 37.1279 124.418L21.8204 115.654C22.1577 114.921 33.392 91.9506 47.4506 99.7972V99.792Z" fill="#D27842"/>
<path d="M27.3217 107.385C23.5699 111.72 21.8204 115.649 21.8204 115.649C21.8204 115.649 27.2426 122.388 36.8697 126.596C39.4465 126.459 38.6666 119.867 39.457 118.201C34.3299 116.334 30.2461 112.2 27.3164 107.385H27.3217Z" fill="#DB946A"/>
<path d="M78.64 121.982C73.1863 141.219 41.5964 154.682 34.9939 145.865C36.8013 152.578 38.6825 154.123 38.6825 154.123L78.2923 158.32C78.2923 158.32 97.7731 140.386 99.0536 114.367C94.9435 111.63 83.2718 105.635 78.6348 121.982H78.64Z" fill="#DB946A"/>
<path d="M57.963 132.513C61.5716 132.513 64.497 129.791 64.497 126.433C64.497 123.075 61.5716 120.353 57.963 120.353C54.3543 120.353 51.429 123.075 51.429 126.433C51.429 129.791 54.3543 132.513 57.963 132.513Z" stroke="white" stroke-width="4.19" stroke-miterlimit="10"/>
<path d="M30.8784 118.143C30.8784 118.143 29.2871 136.004 42.6555 136.805C54.9225 137.544 60.076 129.56 59.0959 118.022L30.8784 118.143Z" fill="white"/>
<path d="M59.0959 118.022C59.0959 119.583 52.7779 120.848 44.9845 120.848C37.1911 120.848 30.8732 119.583 30.8732 118.022C30.8732 116.461 37.1911 115.195 44.9845 115.195C52.7779 115.195 59.0959 116.461 59.0959 118.022Z" fill="#F9DEE1"/>
<path d="M100.429 118.449C100.429 118.449 101.873 164.406 87.951 166.214C79.5305 167.311 66.4361 156.807 55.9501 131.838C55.9501 131.838 38.5928 136.178 54.3219 129.122C54.3219 129.122 36.9646 130.208 55.4074 125.32C55.4074 125.32 31.1788 127.308 54.501 122.425C54.501 122.425 36.4218 119.894 57.2148 119.53C64.086 119.709 79.2723 139.795 79.2723 139.795C79.2723 139.795 76.5586 112.11 83.0715 105.055C89.5792 97.999 100.429 118.444 100.429 118.444V118.449Z" fill="#F19C7C"/>
<path d="M95.3439 132.755C96.872 132.892 98.5003 133.014 100.155 133.03C100.629 124.882 100.429 118.449 100.429 118.449C100.429 118.449 89.5792 98.0043 83.0715 105.06C79.0563 109.416 78.5504 121.623 78.7507 130.335C83.6512 132.718 90.1905 132.286 95.3386 132.755H95.3439Z" fill="#E27654"/>
<path d="M77.3069 128.036C77.3069 128.036 71.8847 99.2647 82.1863 96.5542C92.4932 93.8385 103.88 96.5542 101.715 128.579C101.715 128.579 86.5283 130.752 77.3069 128.036Z" fill="#D27842"/>
<path d="M6.27579 161.247C14.2694 164.105 21.4041 158.046 30.6413 131.616C30.6413 131.616 47.8669 136.457 32.3433 128.948C32.3433 128.948 49.6637 130.535 31.3685 125.12C31.3685 125.12 55.5285 127.809 32.3539 122.251C32.3539 122.251 50.5016 120.242 29.7245 119.277C22.8532 119.261 6.63411 138.667 6.63411 138.667C6.63411 138.667 -8.05161 156.121 6.27052 161.237L6.27579 161.247Z" fill="#F19C7C"/>
</g>
</g>
<defs>
<filter id="filter0_d_478_1591" x="255.461" y="50.0939" width="101.539" height="206.906" filterUnits="userSpaceOnUse" color-interpolation-filters="sRGB">
<feFlood flood-opacity="0" result="BackgroundImageFix"/>
<feColorMatrix in="SourceAlpha" type="matrix" values="0 0 0 0 0 0 0 0 0 0 0 0 0 0 0 0 0 0 127 0" result="hardAlpha"/>
<feOffset dy="4"/>
<feGaussianBlur stdDeviation="2"/>
<feComposite in2="hardAlpha" operator="out"/>
<feColorMatrix type="matrix" values="0 0 0 0 0 0 0 0 0 0 0 0 0 0 0 0 0 0 0.25 0"/>
<feBlend mode="normal" in2="BackgroundImageFix" result="effect1_dropShadow_478_1591"/>
<feBlend mode="normal" in="SourceGraphic" in2="effect1_dropShadow_478_1591" result="shape"/>
</filter>
<filter id="filter1_d_478_1591" x="115.146" y="0.00170898" width="136.072" height="256.998" filterUnits="userSpaceOnUse" color-interpolation-filters="sRGB">
<feFlood flood-opacity="0" result="BackgroundImageFix"/>
<feColorMatrix in="SourceAlpha" type="matrix" values="0 0 0 0 0 0 0 0 0 0 0 0 0 0 0 0 0 0 127 0" result="hardAlpha"/>
<feOffset dy="4"/>
<feGaussianBlur stdDeviation="2"/>
<feComposite in2="hardAlpha" operator="out"/>
<feColorMatrix type="matrix" values="0 0 0 0 0 0 0 0 0 0 0 0 0 0 0 0 0 0 0.25 0"/>
<feBlend mode="normal" in2="BackgroundImageFix" result="effect1_dropShadow_478_1591"/>
<feBlend mode="normal" in="SourceGraphic" in2="effect1_dropShadow_478_1591" result="shape"/>
</filter>
<filter id="filter2_d_478_1591" x="-4.00195" y="34.7727" width="119.879" height="222.228" filterUnits="userSpaceOnUse" color-interpolation-filters="sRGB">
<feFlood flood-opacity="0" result="BackgroundImageFix"/>
<feColorMatrix in="SourceAlpha" type="matrix" values="0 0 0 0 0 0 0 0 0 0 0 0 0 0 0 0 0 0 127 0" result="hardAlpha"/>
<feOffset dy="4"/>
<feGaussianBlur stdDeviation="2"/>
<feComposite in2="hardAlpha" operator="out"/>
<feColorMatrix type="matrix" values="0 0 0 0 0 0 0 0 0 0 0 0 0 0 0 0 0 0 0.25 0"/>
<feBlend mode="normal" in2="BackgroundImageFix" result="effect1_dropShadow_478_1591"/>
<feBlend mode="normal" in="SourceGraphic" in2="effect1_dropShadow_478_1591" result="shape"/>
</filter>
<clipPath id="clip0_478_1591">
<rect width="353" height="249" fill="white"/>
</clipPath>
</defs>
</svg>
